<svg width="48" height="48" viewBox="0 0 48 48" fill="none" xmlns="http://www.w3.org/2000/svg">
<path d="M30.5 39.5C30.5 40.6457 29.4516 42.1445 26.6771 43.4451C24.0221 44.6896 20.2488 45.5 16 45.5C11.7512 45.5 7.97793 44.6896 5.32294 43.4451C2.54839 42.1445 1.5 40.6457 1.5 39.5C1.5 38.3543 2.54839 36.8555 5.32294 35.5549C7.97793 34.3104 11.7512 33.5 16 33.5C20.2488 33.5 24.0221 34.3104 26.6771 35.5549C29.4516 36.8555 30.5 38.3543 30.5 39.5Z" stroke="#152C5B" stroke-width="3"/>
<path d="M28.5 11.3182C28.5 12.7081 28.1395 15.243 27.437 18.3393C26.7416 21.4042 25.735 24.9159 24.4948 28.227C23.2488 31.5537 21.7949 34.6022 20.2295 36.7903C18.601 39.0666 17.1518 40 16 40C14.8482 40 13.399 39.0666 11.7705 36.7903C10.2051 34.6022 8.75122 31.5537 7.50521 28.227C6.26502 24.9159 5.25838 21.4042 4.56301 18.3393C3.86053 15.243 3.5 12.7081 3.5 11.3182C3.5 6.17795 8.78277 1.5 16 1.5C23.2172 1.5 28.5 6.17795 28.5 11.3182Z" fill="white" stroke="#152C5B" stroke-width="3"/>
<circle cx="16" cy="14" r="4.5" stroke="#FF498B" stroke-width="3"/>
</svg>
