<svg width="48" height="48" viewBox="0 0 48 48" fill="none" xmlns="http://www.w3.org/2000/svg">
<mask id="path-1-inside-1" fill="white">
<path fill-rule="evenodd" clip-rule="evenodd" d="M18.3669 5.02951C17.5509 5.02951 16.8167 5.52528 16.5118 6.28221L15.0141 9.99999H8C3.58172 9.99999 0 13.5817 0 18V32C0 36.4183 3.58172 40 8 40H40C44.4183 40 48 36.4183 48 32V18C48 13.5817 44.4183 9.99999 40 9.99999H32.9951L31.5181 6.28983C31.2152 5.5289 30.4789 5.02956 29.6599 5.02956L18.3669 5.02951Z"/>
</mask>
<path d="M16.5118 6.28221L19.2945 7.40316L19.2945 7.40316L16.5118 6.28221ZM18.3669 5.02951L18.3669 2.02951L18.3669 5.02951ZM15.0141 9.99999V13H17.0399L17.7968 11.1209L15.0141 9.99999ZM32.9951 9.99999L30.2078 11.1096L30.9604 13H32.9951V9.99999ZM31.5181 6.28983L34.3053 5.18022V5.18022L31.5181 6.28983ZM29.6599 5.02956L29.6599 8.02956L29.6599 5.02956ZM19.2945 7.40316C19.142 7.78163 18.7749 8.02951 18.3669 8.02951L18.3669 2.02951C16.3268 2.0295 14.4913 3.26894 13.729 5.16127L19.2945 7.40316ZM17.7968 11.1209L19.2945 7.40316L13.729 5.16126L12.2314 8.87904L17.7968 11.1209ZM8 13H15.0141V6.99999H8V13ZM3 18C3 15.2386 5.23858 13 8 13V6.99999C1.92487 6.99999 -3 11.9249 -3 18H3ZM3 32V18H-3V32H3ZM8 37C5.23858 37 3 34.7614 3 32H-3C-3 38.0751 1.92487 43 8 43V37ZM40 37H8V43H40V37ZM45 32C45 34.7614 42.7614 37 40 37V43C46.0751 43 51 38.0751 51 32H45ZM45 18V32H51V18H45ZM40 13C42.7614 13 45 15.2386 45 18H51C51 11.9249 46.0751 6.99999 40 6.99999V13ZM32.9951 13H40V6.99999H32.9951V13ZM28.7308 7.39943L30.2078 11.1096L35.7824 8.89039L34.3053 5.18022L28.7308 7.39943ZM29.6599 8.02956C29.2504 8.02956 28.8823 7.77989 28.7308 7.39943L34.3053 5.18022C33.548 3.27792 31.7074 2.02957 29.6599 2.02956L29.6599 8.02956ZM18.3669 8.02951L29.6599 8.02956L29.6599 2.02956L18.3669 2.02951L18.3669 8.02951Z" fill="#152C5B" mask="url(#path-1-inside-1)"/>
<path d="M41 17H33" stroke="#152C5B" stroke-width="3" stroke-linecap="round"/>
<circle cx="24" cy="25" r="6.5" stroke="#FF498B" stroke-width="3"/>
</svg>
